<?xml version="1.0" encoding="UTF-8"?>
<svg id="Layer_1" data-name="Layer 1" xmlns="http://www.w3.org/2000/svg" viewBox="0 0 413.04 160.02">
  <defs>
    <style>
      .cls-1 {
        stroke: #0c5d7e;
      }

      .cls-1, .cls-2 {
        stroke-miterlimit: 10;
      }

      .cls-1, .cls-3 {
        fill: #0c5d7e;
      }

      .cls-4 {
        fill: #5ec2a7;
      }

      .cls-4, .cls-3, .cls-5, .cls-6 {
        stroke-width: 0px;
      }

      .cls-7 {
        fill: #333;
        font-family: MyriadPro-Regular, 'Myriad Pro';
        font-size: 12px;
        letter-spacing: 2.79em;
      }

      .cls-2 {
        fill: #e3f0d4;
        stroke: #11967f;
      }

      .cls-5 {
        fill: #11967f;
      }

      .cls-6 {
        fill: #f2f9fe;
      }
    </style>
  </defs>
  <circle class="cls-1" cx="46.1" cy="10.41" r="9.91"/>
  <rect class="cls-5" x="35.05" y="26.8" width="22.11" height="96.14" rx="4.39" ry="4.39"/>
  <rect class="cls-4" x="105.28" y="22.37" width="62.07" height="17.68" rx="3.17" ry="3.17"/>
  <rect class="cls-5" x="184.59" y="22.37" width="19.83" height="99.91" rx="3.51" ry="3.51"/>
  <path class="cls-2" d="M211.74,22.72c27.14,0,49.14,22,49.14,49.14s-22,49.14-49.14,49.14"/>
  <rect class="cls-5" x="273.43" y="31.11" width="18.44" height="91.83" rx="2.78" ry="2.78"/>
  <circle class="cls-3" cx="282.65" cy="10.41" r="9.91"/>
  <text class="cls-7" transform="translate(313.04 69.16)"><tspan x="0" y="0" xml:space="preserve">		</tspan></text>
  <circle class="cls-5" cx="357" cy="76.36" r="56.03"/>
  <circle class="cls-6" cx="357" cy="76.36" r="36.71"/>
  <rect class="cls-5" x="347.95" y="92.13" width="18.1" height="67.89" rx="3.33" ry="3.33"/>
  <circle class="cls-3" cx="357" cy="76.36" r="9.91"/>
  <path class="cls-5" d="M0,119.1V24.55c0-1.6.77-3.11,2.06-4.06L19.61,7.66c3.32-2.43,7.99-.06,8,4.05l.29,107.16c0,2.76-2.21,5.01-4.97,5.04l-17.84.22C2.29,124.16,0,121.9,0,119.1Z"/>
  <path class="cls-5" d="M92.19,119.1V24.55c0-1.6-.77-3.11-2.06-4.06l-17.55-12.84c-3.32-2.43-7.99-.06-8,4.05l-.29,107.16c0,2.76,2.21,5.01,4.97,5.04l17.84.22c2.8.03,5.09-2.23,5.09-5.03Z"/>
  <circle class="cls-3" cx="231.57" cy="72.32" r="9.91"/>
  <rect class="cls-5" y="140.19" width="331.14" height="19.83" rx="2.84" ry="2.84"/>
  <rect class="cls-4" x="105.28" y="63.01" width="62.07" height="17.68" rx="3.17" ry="3.17"/>
  <rect class="cls-4" x="105.71" y="104.24" width="62.07" height="17.68" rx="3.17" ry="3.17"/>
  <circle class="cls-3" cx="393.72" cy="150.11" r="9.91"/>
</svg>